<svg width="24" height="24" viewBox="0 0 24 24" fill="none" xmlns="http://www.w3.org/2000/svg">
<path d="M19.9975 13.6951L18.9978 13.6691C18.9974 13.6846 18.9974 13.7002 18.9977 13.7157L19.9975 13.6951ZM19.4291 16.3702L18.5052 15.9875L19.4291 16.3702ZM15.3701 20.4292L14.9874 19.5053H14.9874L15.3701 20.4292ZM9.62987 20.4292L9.24719 21.353L9.62987 20.4292ZM7.1967 18.8034L7.9038 18.0963H7.9038L7.1967 18.8034ZM5.5709 16.3702L6.49478 15.9875L6.49478 15.9875L5.5709 16.3702ZM5.00324 13.7206L6.00297 13.7439C6.00338 13.7263 6.00333 13.7088 6.00281 13.6912L5.00324 13.7206ZM5.01722 14.0081L4.01952 14.0759L5.01722 14.0081ZM19.9626 14.2718L19.0001 14.0006L19.9626 14.2718ZM19.9573 14.2988L18.963 14.1923L19.9573 14.2988ZM20 13.5042L19 13.5037L20 13.5042ZM19.9917 13.496L18.9924 13.5336L19.9917 13.496ZM16.4118 6.07125L17.0529 6.83869L16.4118 6.07125ZM16.5875 6.0707L17.2285 5.30318L16.5875 6.0707ZM14.5867 7.80947L15.4893 7.37902L14.5867 7.80947ZM14.8546 7.83019L15.6787 8.39671L14.8546 7.83019ZM5.01062 13.4949L4.0115 13.4528L5.01062 13.4949ZM10.9125 3.06174L10.3281 2.25025L10.9125 3.06174ZM11.0835 3.07088L10.4279 3.82597L11.0835 3.07088ZM10.3281 2.25025C9.57793 2.79045 4.29177 6.8008 4.0115 13.4528L6.00973 13.537C6.24782 7.88625 10.8074 4.36972 11.4968 3.87323L10.3281 2.25025ZM15.4893 7.37902C14.104 4.47416 12.2008 2.71664 11.7391 2.3158L10.4279 3.82597C10.7764 4.12855 12.4611 5.67538 13.684 8.23991L15.4893 7.37902ZM15.6787 8.39671C16.2882 7.51002 16.8728 6.9892 17.0529 6.83869L15.7707 5.3038C15.4884 5.53961 14.7677 6.19142 14.0306 7.26368L15.6787 8.39671ZM15.9465 6.83822C16.3738 7.19509 18.8381 9.43061 18.9924 13.5336L20.991 13.4584C20.8059 8.53775 17.8502 5.82238 17.2285 5.30318L15.9465 6.83822ZM19 13.5037C19 13.5589 18.9992 13.614 18.9978 13.6691L20.9971 13.7211C20.999 13.649 21 13.5769 21 13.5048L19 13.5037ZM18.9977 13.7157C18.9992 13.7903 19 13.8654 19 13.9412H21C21 13.8517 20.9991 13.7627 20.9972 13.6744L18.9977 13.7157ZM19 13.9412V14.0001H21V13.9412H19ZM19 14.0001L19.0001 14.0006L20.9252 14.5429C20.9741 14.3691 21 14.1868 21 14.0001H19ZM18.963 14.1923C18.8971 14.8083 18.7432 15.4129 18.5052 15.9875L20.353 16.7529C20.6642 16.0015 20.8654 15.2108 20.9517 14.4053L18.963 14.1923ZM18.5052 15.9875C18.1786 16.7761 17.6998 17.4927 17.0962 18.0963L18.5104 19.5105C19.2997 18.7212 19.9258 17.7841 20.353 16.7529L18.5052 15.9875ZM17.0962 18.0963C16.4926 18.6998 15.7761 19.1786 14.9874 19.5053L15.7528 21.353C16.7841 20.9259 17.7211 20.2998 18.5104 19.5105L17.0962 18.0963ZM14.9874 19.5053C14.1988 19.8319 13.3536 20.0001 12.5 20.0001V22.0001C13.6162 22.0001 14.7215 21.7802 15.7528 21.353L14.9874 19.5053ZM12.5 20.0001C11.6464 20.0001 10.8012 19.8319 10.0126 19.5053L9.24719 21.353C10.2785 21.7802 11.3838 22.0001 12.5 22.0001V20.0001ZM10.0126 19.5053C9.22394 19.1786 8.50738 18.6998 7.9038 18.0963L6.48959 19.5105C7.27889 20.2998 8.21592 20.9259 9.24719 21.353L10.0126 19.5053ZM7.9038 18.0963C7.30022 17.4927 6.82144 16.7761 6.49478 15.9875L4.64702 16.7529C5.07419 17.7841 5.70029 18.7212 6.48959 19.5105L7.9038 18.0963ZM6.49478 15.9875C6.22442 15.3348 6.06265 14.6433 6.01493 13.9404L4.01952 14.0759C4.08193 14.9951 4.29347 15.8993 4.64702 16.7529L6.49478 15.9875ZM4.00351 13.6974C4.00125 13.7947 4.00007 13.8924 4 13.9907L6 13.9922C6.00006 13.9089 6.00106 13.8262 6.00297 13.7439L4.00351 13.6974ZM6.00281 13.6912C6.00098 13.6291 6.00004 13.5669 6 13.5047L4 13.5061C4.00006 13.5875 4.00128 13.6688 4.00367 13.75L6.00281 13.6912ZM5.00862 13.0001C5.55596 13.0001 6.00039 13.4439 6 13.9922L4 13.9907C3.9996 14.5485 4.45175 15.0001 5.00862 15.0001V13.0001ZM6.01493 13.9404C5.97905 13.4119 5.54 13.0001 5.00862 13.0001V15.0001C4.48631 15.0001 4.05479 14.5953 4.01952 14.0759L6.01493 13.9404ZM6 13.5047C6.00039 14.0548 5.55448 14.5001 5.00531 14.5001V12.5001C4.45027 12.5001 3.99961 12.9501 4 13.5061L6 13.5047ZM19.0001 14.0006C18.9841 14.0574 18.9706 14.1216 18.963 14.1923L20.9517 14.4053C20.9461 14.4577 20.9362 14.5038 20.9252 14.5429L19.0001 14.0006ZM19.9958 14.5001C19.446 14.5001 18.9997 14.0542 19 13.5037L21 13.5048C21.0003 12.9496 20.5503 12.5001 19.9958 12.5001V14.5001ZM18.9924 13.5336C19.012 14.0545 19.4376 14.5001 19.9958 14.5001V12.5001C20.5496 12.5001 20.9715 12.9419 20.991 13.4584L18.9924 13.5336ZM17.0529 6.83869C16.7391 7.10091 16.2719 7.10997 15.9465 6.83822L17.2285 5.30318C16.8001 4.94538 16.1876 4.95552 15.7707 5.3038L17.0529 6.83869ZM13.684 8.23991C14.0685 9.04615 15.1783 9.12455 15.6787 8.39671L14.0306 7.26368C14.3967 6.73107 15.2068 6.78664 15.4893 7.37902L13.684 8.23991ZM4.0115 13.4528C4.03332 12.9351 4.45754 12.5001 5.00531 12.5001V14.5001C5.55877 14.5001 5.98768 14.0605 6.00973 13.537L4.0115 13.4528ZM11.4968 3.87323C11.1584 4.11693 10.7135 4.07399 10.4279 3.82597L11.7391 2.3158C11.3538 1.98121 10.7737 1.92938 10.3281 2.25025L11.4968 3.87323Z" fill="yellow"/>
<path d="M11.9092 10.075L12.5535 10.8398L11.9092 10.075ZM11.2649 9.31025C10.9356 9.58765 9.89268 10.5083 8.92445 11.8317C7.96707 13.1402 7 14.955 7 17H9C9 15.5694 9.69009 14.1723 10.5386 13.0126C11.3762 11.8677 12.2879 11.0636 12.5535 10.8398L11.2649 9.31025ZM17 17C17 14.955 16.033 13.1402 15.0756 11.8317C14.1074 10.5083 13.0645 9.58767 12.7353 9.31026L11.4466 10.8398C11.7122 11.0636 12.6239 11.8677 13.4615 13.0126C14.3099 14.1723 15 15.5694 15 17H17ZM15 17C15 17 15 17 15 17C15 17 15 17 15 17C15 17 15 17 15 17C15 17 15 17 15 17C15 17 15 17 15 17C15 17 15 17 15 17V17V17V17C15 17 15 17 15 17C15 17 15 17 15 17C15 17 15 17 15 17C15 17 15 17 15 17C15 17 15 17 15 17V17V17C15 17 15 17 15 17C15 17 15 17 15 17C15 17 15 17 15 17C15 17 15 17 15 17V17C15 17 15 17 15 17C15 17 15 17 15 17C15 17 15 17 15 17V17V17C15 17 15 17 15 17C15 17 15 17 15 17C15 17 15 17 15 17V17C15 17 15 17 15 17C15 17 15 17 15 17C15 17 15 17 15 17V17V17C15 17 15 17 15 17C15 17 15 17 15 17C15 17 15 17 15 17V17V17C15 17 15 17 15 17C15 17 15 17 15 17C15 17 15 17 15 17C15 17 15 17 15 17V17V17C15 17 15 17 15 17C15 17 15 17 15 17C15 17 15 17 15 17C15 17 15 17 15 17C15 17 15 17 15 17C15 17 15 17 15 17C15 17 15 17 15 17C15 17 15 17 15 17C15 17 15 17 15 17C15 17 15 17 15 17H17C17 17 17 17 17 17C17 17 17 17 17 17C17 17 17 17 17 17C17 17 17 17 17 17C17 17 17 17 17 17C17 17 17 17 17 17C17 17 17 17 17 17C17 17 17 17 17 17C17 17 17 17 17 17C17 17 17 17 17 17V17V17C17 17 17 17 17 17C17 17 17 17 17 17C17 17 17 17 17 17C17 17 17 17 17 17V17V17C17 17 17 17 17 17C17 17 17 17 17 17C17 17 17 17 17 17V17V17C17 17 17 17 17 17C17 17 17 17 17 17C17 17 17 17 17 17V17C17 17 17 17 17 17C17 17 17 17 17 17C17 17 17 17 17 17V17V17C17 17 17 17 17 17C17 17 17 17 17 17C17 17 17 17 17 17V17C17 17 17 17 17 17C17 17 17 17 17 17C17 17 17 17 17 17C17 17 17 17 17 17V17V17C17 17 17 17 17 17C17 17 17 17 17 17C17 17 17 17 17 17C17 17 17 17 17 17C17 17 17 17 17 17V17V17V17C17 17 17 17 17 17C17 17 17 17 17 17C17 17 17 17 17 17C17 17 17 17 17 17C17 17 17 17 17 17C17 17 17 17 17 17H15ZM15 17C15 18.6568 13.6569 20 12 20V22C14.7614 22 17 19.7614 17 17H15ZM12 20C10.3431 20 9 18.6568 9 17H7C7 19.7614 9.23858 22 12 22V20ZM9 17C9 17 9 17 9 17C9 17 9 17 9 17C9 17 9 17 9 17C9 17 9 17 9 17C9 17 9 17 9 17C9 17 9 17 9 17C9 17 9 17 9 17C9 17 9 17 9 17C9 17 9 17 9 17C9 17 9 17 9 17V17V17C9 17 9 17 9 17C9 17 9 17 9 17C9 17 9 17 9 17C9 17 9 17 9 17V17V17C9 17 9 17 9 17C9 17 9 17 9 17C9 17 9 17 9 17V17V17C9 17 9 17 9 17C9 17 9 17 9 17C9 17 9 17 9 17V17C9 17 9 17 9 17C9 17 9 17 9 17C9 17 9 17 9 17V17V17C9 17 9 17 9 17C9 17 9 17 9 17C9 17 9 17 9 17V17C9 17 9 17 9 17C9 17 9 17 9 17C9 17 9 17 9 17C9 17 9 17 9 17V17V17C9 17 9 17 9 17C9 17 9 17 9 17C9 17 9 17 9 17C9 17 9 17 9 17C9 17 9 17 9 17V17V17V17C9 17 9 17 9 17C9 17 9 17 9 17C9 17 9 17 9 17C9 17 9 17 9 17C9 17 9 17 9 17C9 17 9 17 9 17H7C7 17 7 17 7 17C7 17 7 17 7 17C7 17 7 17 7 17C7 17 7 17 7 17C7 17 7 17 7 17C7 17 7 17 7 17V17V17V17C7 17 7 17 7 17C7 17 7 17 7 17C7 17 7 17 7 17C7 17 7 17 7 17C7 17 7 17 7 17V17V17C7 17 7 17 7 17C7 17 7 17 7 17C7 17 7 17 7 17C7 17 7 17 7 17V17C7 17 7 17 7 17C7 17 7 17 7 17C7 17 7 17 7 17V17V17C7 17 7 17 7 17C7 17 7 17 7 17C7 17 7 17 7 17V17C7 17 7 17 7 17C7 17 7 17 7 17C7 17 7 17 7 17V17V17C7 17 7 17 7 17C7 17 7 17 7 17C7 17 7 17 7 17V17V17C7 17 7 17 7 17C7 17 7 17 7 17C7 17 7 17 7 17C7 17 7 17 7 17V17V17C7 17 7 17 7 17C7 17 7 17 7 17C7 17 7 17 7 17C7 17 7 17 7 17C7 17 7 17 7 17C7 17 7 17 7 17C7 17 7 17 7 17C7 17 7 17 7 17C7 17 7 17 7 17C7 17 7 17 7 17H9ZM12.5535 10.8398C12.2346 11.1084 11.7655 11.1084 11.4466 10.8398L12.7353 9.31026C12.3096 8.95159 11.6906 8.9516 11.2649 9.31025L12.5535 10.8398Z" fill="yellow"/>
</svg>
